<?xml version="1.0" encoding="utf-8"?>
<!-- Generator: Adobe Illustrator 19.1.0, SVG Export Plug-In . SVG Version: 6.00 Build 0)  -->
<svg version="1.1" id="design" xmlns="http://www.w3.org/2000/svg" xmlns:xlink="http://www.w3.org/1999/xlink" x="0px" y="0px"
	 width="100px" height="100px" viewBox="0 0 100 100" style="enable-background:new 0 0 100 100;" xml:space="preserve">
<path d="M68.7,39.2c0,3.6-2.9,6.6-6.6,6.6c-3.6,0-6.6-2.9-6.6-6.6s2.9-6.6,6.6-6.6C65.8,32.6,68.7,35.5,68.7,39.2z M80,71.7
	c0,1.8-1.5,3.3-3.3,3.3H23.3c-1.8,0-3.3-1.5-3.3-3.3V28.3c0-1.8,1.5-3.3,3.3-3.3h53.4c1.8,0,3.3,1.5,3.3,3.3V71.7z M22,28.6v27.1
	l11.3-18.9l9.3,12.2l5.6-2.4L62,58.3l10.8-6.6l5.2,4.4V28.6c0-0.6-0.8-1.6-1.4-1.6H23.4C22.8,27,22,27.9,22,28.6z"/>
</svg>
