<?xml version="1.0" encoding="utf-8"?>
<!-- Generator: Adobe Illustrator 19.1.0, SVG Export Plug-In . SVG Version: 6.00 Build 0)  -->
<svg version="1.1" id="design" xmlns="http://www.w3.org/2000/svg" xmlns:xlink="http://www.w3.org/1999/xlink" x="0px" y="0px"
	 width="100px" height="100px" viewBox="0 0 100 100" style="enable-background:new 0 0 100 100;" xml:space="preserve">
<path d="M51.5,24.1c-17,0-30.8,10-30.8,22.4c0,4,1.4,7.7,3.9,10.9c4.4,11.6-6.9,18.4-6.9,18.4s19.1-3.8,21.6-8.8
	c3.7,1.2,7.8,1.8,12.1,1.8c17,0,30.8-10,30.8-22.4S68.5,24.1,51.5,24.1z M49.6,55.7c-0.3,0.7-0.7,1.4-1.2,1.9
	c-0.5,0.5-1.1,1-1.9,1.3c-0.7,0.3-1.5,0.5-2.5,0.5c-1.2,0-2.2-0.2-3.1-0.6c-0.9-0.4-1.6-1-2.2-1.8c-0.6-0.8-1-1.7-1.3-2.7
	c-0.3-1-0.4-2.1-0.4-3.3c0-2.6,0.6-5.4,1.8-8.4c1.2-3,3-6,5.6-9.1l3.1,2.2c-0.4,0.5-0.9,1.3-1.4,2.2c-0.5,0.9-1,2-1.5,3.1
	c-0.5,1.1-0.9,2.3-1.2,3.6c-0.3,1.3-0.5,2.5-0.5,3.6c0.4-0.1,0.7-0.2,0.9-0.2c0.2,0,0.5,0,0.8,0c0.7,0,1.4,0.1,2,0.3
	c0.7,0.2,1.2,0.5,1.8,1c0.5,0.4,0.9,1,1.2,1.6c0.3,0.7,0.5,1.5,0.5,2.4C50,54.3,49.9,55,49.6,55.7z M65.6,55.7
	c-0.3,0.7-0.7,1.4-1.2,1.9s-1.1,1-1.9,1.3c-0.7,0.3-1.5,0.5-2.5,0.5c-1.2,0-2.2-0.2-3.1-0.6c-0.9-0.4-1.6-1-2.2-1.8
	c-0.6-0.8-1-1.7-1.3-2.7c-0.3-1-0.4-2.1-0.4-3.3c0-2.6,0.6-5.4,1.8-8.4c1.2-3,3-6,5.6-9.1l3.1,2.2c-0.4,0.5-0.9,1.3-1.4,2.2
	c-0.5,0.9-1,2-1.5,3.1c-0.5,1.1-0.9,2.3-1.2,3.6c-0.3,1.3-0.5,2.5-0.5,3.6c0.4-0.1,0.7-0.2,0.9-0.2c0.2,0,0.5,0,0.8,0
	c0.7,0,1.4,0.1,2,0.3c0.7,0.2,1.2,0.5,1.8,1c0.5,0.4,0.9,1,1.2,1.6c0.3,0.7,0.5,1.5,0.5,2.4C66,54.3,65.9,55,65.6,55.7z"/>
</svg>
