<?xml version="1.0" encoding="utf-8"?>
<!-- Generator: Adobe Illustrator 19.1.0, SVG Export Plug-In . SVG Version: 6.00 Build 0)  -->
<svg version="1.1" id="design" xmlns="http://www.w3.org/2000/svg" xmlns:xlink="http://www.w3.org/1999/xlink" x="0px" y="0px"
	 width="100px" height="100px" viewBox="0 0 100 100" style="enable-background:new 0 0 100 100;" xml:space="preserve">
<path id="TOC" d="M32.6,31c0,2.7-2.2,5-5,5s-5-2.2-5-5s2.2-5,5-5S32.6,28.2,32.6,31z M77,31.3c0-1.2-1-2.3-2.3-2.3H38.3
	C37,29,36,30,36,31.3v0.5c0,1.2,1,2.3,2.3,2.3h36.5c1.2,0,2.3-1,2.3-2.3V31.3z M27.7,45c-2.7,0-5,2.2-5,5s2.2,5,5,5s5-2.2,5-5
	S30.4,45,27.7,45z M77,50.3c0-1.2-1-2.3-2.3-2.3H38.3C37,48,36,49,36,50.3v0.5c0,1.2,1,2.3,2.3,2.3h36.5c1.2,0,2.3-1,2.3-2.3V50.3z
	 M27.7,64.1c-2.7,0-5,2.2-5,5c0,2.7,2.2,5,5,5s5-2.2,5-5C32.6,66.3,30.4,64.1,27.7,64.1z M77,69.3c0-1.2-1-2.3-2.3-2.3H38.3
	C37,67,36,68,36,69.3v0.5c0,1.2,1,2.3,2.3,2.3h36.5c1.2,0,2.3-1,2.3-2.3V69.3z"/>
</svg>
