<?xml version="1.0" encoding="utf-8"?>
<!-- Generator: Adobe Illustrator 19.1.0, SVG Export Plug-In . SVG Version: 6.00 Build 0)  -->
<svg version="1.1" id="design" xmlns="http://www.w3.org/2000/svg" xmlns:xlink="http://www.w3.org/1999/xlink" x="0px" y="0px"
	 width="100px" height="100px" viewBox="0 0 100 100" style="enable-background:new 0 0 100 100;" xml:space="preserve">
<path d="M78,27.3h-0.3v-0.2c0-1.8-1.5-3.4-3.3-3.7c-7.1-1.1-15.2-1.1-22.2,0c-0.8,0.1-1.6,0.5-2.1,1.1c-0.6-0.5-1.3-0.9-2.1-1.1
	c-7.1-1.1-15.2-1.1-22.2,0c-1.8,0.3-3.3,1.9-3.3,3.7v0.2H22c-1.3,0-2,1.3-2,2.6v36.6c0,1.3,0.7,2.4,2,2.4h36.2v7.7
	c0,0.3,0.2,0.5,0.4,0.6c0.1,0.1,0.3,0.1,0.4,0.1c0.1,0,0.2,0,0.3-0.1l4.1-2.4l4.1,2.4c0.2,0.1,0.5,0.1,0.7-0.1s0.4-0.4,0.4-0.6v-7.7
	H78c1.3,0,2-1.1,2-2.4V29.9C80,28.6,79.3,27.3,78,27.3z M48.2,63c0,0.2-0.3,0.4-0.4,0.5c-0.2,0.2-0.7,0.2-1,0.2
	c-7.1-1.1-14.2-1.1-21.2,0c-0.3,0-0.6,0-0.8-0.2c-0.1-0.1-0.2-0.3-0.2-0.5V27.3v-0.2c0-0.6,0.7-1.3,1.4-1.4
	c3.4-0.5,7.1-0.8,10.8-0.8c3.7,0,6.5,0.3,9.9,0.8c0.7,0.1,1.5,0.7,1.5,1.4V63z M67.2,71.9v3.5l-3.3-2c-0.2-0.1-0.5-0.1-0.7,0l-3.4,2
	v-3.5v-6.4h7.4V71.9z M75.4,63c0,0.2-0.1,0.4-0.3,0.5c-0.2,0.2-0.5,0.2-0.8,0.2c-7.1-1.1-14.2-1.1-21.2,0c-0.3,0-0.7,0-0.9-0.2
	c-0.1-0.1-0.4-0.3-0.4-0.5V27.1c0-0.6,0.8-1.3,1.5-1.4c6.8-1,13.9-1,20.8,0c0.7,0.1,1.3,0.7,1.3,1.4V63z"/>
</svg>
