<?xml version="1.0" encoding="utf-8"?>
<!-- Generator: Adobe Illustrator 19.1.0, SVG Export Plug-In . SVG Version: 6.00 Build 0)  -->
<svg version="1.1" id="design" xmlns="http://www.w3.org/2000/svg" xmlns:xlink="http://www.w3.org/1999/xlink" x="0px" y="0px"
	 width="100px" height="100px" viewBox="0 0 100 100" style="enable-background:new 0 0 100 100;" xml:space="preserve">
<path d="M79.2,75l-16-16c0,0,0,0,0,0c3.1-4.1,5-9.1,5-14.6c0-13.3-10.8-24.1-24.1-24.1C30.8,20.3,20,31.1,20,44.3
	c0,13.3,10.8,24.1,24.1,24.1c5.8,0,11.1-2.1,15.3-5.5l16,16c1.1,1.1,2.8,1.1,3.9,0h0C80.3,77.8,80.3,76.1,79.2,75z M44.1,62.9
	c-10.2,0-18.6-8.3-18.6-18.6c0-10.2,8.3-18.6,18.6-18.6c10.2,0,18.6,8.3,18.6,18.6C62.6,54.6,54.3,62.9,44.1,62.9z"/>
</svg>
