<?xml version="1.0" encoding="utf-8"?>
<!-- Generator: Adobe Illustrator 19.1.0, SVG Export Plug-In . SVG Version: 6.00 Build 0)  -->
<svg version="1.1" id="design" xmlns="http://www.w3.org/2000/svg" xmlns:xlink="http://www.w3.org/1999/xlink" x="0px" y="0px"
	 width="100px" height="100px" viewBox="0 0 100 100" style="enable-background:new 0 0 100 100;" xml:space="preserve">
<style type="text/css">
	.st0{fill:#676767;}
</style>
<path class="st0" d="M65.7,34.6c0,8.7-7,20.6-15.7,20.6s-15.7-12-15.7-20.6s7-15.7,15.7-15.7S65.7,26,65.7,34.6z M61.9,51.9
	c-3.2,4.1-7.3,6.9-11.9,6.9c-4.5,0-8.7-2.9-11.9-6.9C28,56.1,20,66.6,20,72.5c0,8,14,8.6,30,8.6s30-0.6,30-8.6
	C80,66.6,72,56.1,61.9,51.9z"/>
</svg>
