<?xml version="1.0" encoding="utf-8"?>
<!-- Generator: Adobe Illustrator 19.1.0, SVG Export Plug-In . SVG Version: 6.00 Build 0)  -->
<svg version="1.1" id="design" xmlns="http://www.w3.org/2000/svg" xmlns:xlink="http://www.w3.org/1999/xlink" x="0px" y="0px"
	 width="100px" height="100px" viewBox="0 0 100 100" style="enable-background:new 0 0 100 100;" xml:space="preserve">
<style type="text/css">
	.st0{fill:#676767;}
</style>
<path class="st0" id="notes" d="M28.5,57c0-1.1,0.9-2,2-2h14.3c1.1,0,2,0.9,2,2c0,1.1-0.9,2-2,2H30.5C29.4,59,28.5,58.1,28.5,57z M78.5,24.6
	c-2.1-2.1-5.5-2.1-7.6,0l7.6,7.6C80.6,30.1,80.6,26.7,78.5,24.6z M68.8,26.7l8.2,7.6l-7,7.5v31.7c0,1.9-2.7,3.4-4.6,3.4H23.3
	c-1.9,0-3.3-1.4-3.3-3.4V27.9c0-1.9,1.3-3.9,3.3-3.9h42.1C67,24,68.3,25.2,68.8,26.7L68.8,26.7z M67,27.9c0-0.6-1-0.9-1.6-0.9H23.3
	c-0.6,0-0.3,0.2-0.3,0.9v45.7c0,0.6-0.4,1.4,0.3,1.4h42.1c0.6,0,1.6-0.7,1.6-1.4V44.2L60.1,51l-13.2,5.4l3.5-8.5
	c-0.2,0-0.3,0.1-0.5,0.1H30.5c-1.1,0-2-0.4-2-1.5c0-1.1,0.9-1.5,2-1.5h19.4c0.7,0,1.4-0.1,1.7,0.5l0.8-1.9l5.8-5.6H30.5
	c-1.1,0-2-0.9-2-2c0-1.1,0.9-2,2-2h29.2c0.7,0,1.3,0.2,1.6,0.7L67,29V27.9z M50.4,51.6l1.1,1.1l7.5-3.1c0,0-0.2-1.4-0.9-2.1
	c-0.7-0.7-2-0.5-2.3-0.2c0.3-0.3,0.5-1.6-0.2-2.3c-0.7-0.7-2.1-0.9-2.1-0.9L50.4,51.6z"/>
</svg>
