<?xml version="1.0" encoding="utf-8"?>
<!-- Generator: Adobe Illustrator 19.2.1, SVG Export Plug-In . SVG Version: 6.00 Build 0)  -->
<svg version="1.1" id="design" xmlns="http://www.w3.org/2000/svg" xmlns:xlink="http://www.w3.org/1999/xlink" x="0px" y="0px"
	 width="100px" height="100px" viewBox="0 0 100 100" style="enable-background:new 0 0 100 100;" xml:space="preserve">
<style type="text/css">
	.st0{fill:#52818B;}
	.st1{fill:#FFFFFF;}
</style>
<circle class="st0" cx="50" cy="50" r="47"/>
<path class="st1" d="M76.7,72.9L62.1,58.2l0,0c2.8-3.8,4.6-8.3,4.6-13.4c0-12.2-9.9-22.1-22.1-22.1c-12.2,0-22.1,9.9-22.1,22
	c0,12.2,9.9,22.1,22.1,22.1c5.3,0,10.2-1.9,14-5l14.7,14.7c1,1,2.6,1,3.6,0l0,0C77.7,75.5,77.7,73.9,76.7,72.9z M44.6,61.8
	c-9.3,0-17-7.6-17-17c0-9.3,7.6-17,17-17c9.3,0,17,7.6,17,17C61.5,54.2,53.9,61.8,44.6,61.8z"/>
</svg>
